<svg width="80" height="80" viewBox="0 0 80 80" fill="none" xmlns="http://www.w3.org/2000/svg">
<path d="M70 69.333C64.4794 69.333 60 64.8543 60 59.333C60 53.8124 64.4794 49.333 70 49.333C75.5206 49.333 80 53.8124 80 59.333C80 64.8543 75.5206 69.333 70 69.333ZM70 52.6668C66.3336 52.6668 63.3331 55.6668 63.3331 59.333C63.3331 63 66.3336 65.9999 70 65.9999C73.6664 65.9999 76.6669 62.9999 76.6669 59.333C76.6669 55.6666 73.6664 52.6668 70 52.6668ZM21.6669 69.333C16.1456 69.333 11.6669 64.8543 11.6669 59.333H15C15 63 18 65.9999 21.6669 65.9999C25.2709 65.9999 28.2086 63.1666 28.3331 59.5624L31.6669 59.6877C31.4789 65.1039 27.0831 69.333 21.6669 69.333Z" fill="#00A31E"/>
<path d="M55.2917 65.9998H36.3959C35.0622 65.9998 33.8122 65.4792 32.8541 64.5417L29.7919 61.4788C29.4794 61.1663 29.0625 60.9998 28.6041 60.9998H10.4791C7.45844 60.9998 5 58.5413 5 55.4998C5 54.3957 5.33328 53.3332 5.9375 52.4163L12.8541 42.229L15.6042 44.104L8.68781 54.2915C8.4375 54.6454 8.31234 55.0623 8.31234 55.4999C8.31234 56.687 9.27063 57.6667 10.4791 57.6667H28.6041C29.9378 57.6667 31.1878 58.1873 32.1459 59.1248L35.1873 62.1662C35.4998 62.4787 35.9167 62.6459 36.3752 62.6459H55.2709C55.7086 62.6459 56.1248 62.4787 56.4581 62.1662L60.4791 58.1459L62.8333 60.4999L58.8122 64.5417C57.8747 65.4792 56.6247 65.9998 55.2919 65.9998H55.2917Z" fill="#00A31E"/>
<path d="M55 52.6668H44.7083C43.3753 52.6668 42.1253 52.1455 41.1664 51.208L36.4581 46.4789C35.5206 45.5414 35 44.2708 35 42.9371V32.6668C35 31.75 34.25 30.9999 33.3331 30.9999H13.3331V27.6668H33.3331C36.0834 27.6668 38.3331 29.9164 38.3331 32.6668V42.9585C38.3331 43.3955 38.5211 43.8332 38.8122 44.1457L43.5211 48.8539C43.8336 49.1664 44.2498 49.333 44.7083 49.333H55C55.9167 49.333 56.6669 48.5835 56.6669 47.6668V19.333C56.6669 18.4163 55.9169 17.6668 55 17.6668H50V14.333H55C57.7503 14.333 60 16.5833 60 19.333V47.6668C60 50.4164 57.7503 52.6668 55 52.6668ZM0 19.333H20V22.6668H0V19.333ZM0 35.9999H16.6669V39.333H0V35.9999Z" fill="#00A31E"/>
<path d="M35 29.3331H31.6669V14.3331H13.3331V11H35V29.3331ZM62.5 31H58.3331V27.6669H62.5C63.875 27.6669 65 26.5414 65 25.1669C65 23.7919 63.875 22.6669 62.5 22.6669H58.3331V19.3331H62.5C65.7086 19.3331 68.3331 21.9581 68.3331 25.1669C68.3331 28.3748 65.7086 31 62.5 31ZM21.6669 36H36.6669V39.3331H21.6669V36Z" fill="#00A31E"/>
<path d="M70 51.1876C69.8125 40.0418 64.5831 31.0001 58.3331 31.0001V27.667C66.5209 27.667 73.1042 37.9795 73.3331 51.1461L70 51.1876Z" fill="#00A31E"/>
</svg>
