<svg width="80" height="80" viewBox="0 0 80 80" fill="none" xmlns="http://www.w3.org/2000/svg">
<g clip-path="url(#clip0_14404_128)">
<path d="M80.0002 64.4565H6.95673V47.0649H80.0002V64.4565ZM10.4348 60.9784H76.5215V50.5436H10.4348V60.9784Z" fill="#00A31E"/>
<path d="M80.0002 78.3692H6.95672V62.717H10.4348V74.8912H76.5215V62.717H80.0002V78.3692ZM53.9132 14.0219H5.21738V0.108398H53.9132V14.0219ZM8.69542 10.5432H50.4345V3.58709H8.69542V10.5432Z" fill="#00A31E"/>
<path d="M8.69543 73.1519H0L0.0648913 29.1742L5.28228 11.7827L8.63054 12.7825L3.47804 29.9347V69.6739H8.69543V73.1519ZM50.5117 12.7744L53.8426 11.7744L58.5389 27.4266L55.2073 28.4259L50.5117 12.7744Z" fill="#00A31E"/>
<path d="M80.0001 36.6301H38.261V26.1953H80.0001V36.6301ZM41.7391 33.152H76.5215V29.674H41.7391V33.152Z" fill="#00A31E"/>
<path d="M63.3913 28.5437L60.1304 27.3261L64.9346 14.5436C65.1855 13.8811 65.6315 13.3102 66.2138 12.9065C66.796 12.5028 67.487 12.2853 68.1955 12.2827H78.2608V15.7608H68.1955L63.3913 28.5437ZM41.8633 35.0737L45.3414 34.726L46.7393 48.7045L43.2606 49.0523L41.8633 35.0737ZM72.4588 48.511L73.8567 34.5324L77.3347 34.8809L75.9368 48.8586L72.4588 48.511Z" fill="#00A31E"/>
<path d="M43.4784 57.4996C38.4567 57.4996 34.3697 53.6083 34.3697 48.8042H37.8477C37.8477 51.6741 40.3698 54.0216 43.4784 54.0216C46.587 54.0216 49.1085 51.6741 49.1085 48.8042H52.5872C52.5872 53.6083 48.4997 57.4996 43.4784 57.4996Z" fill="#00A31E"/>
</g>
<defs>
<clipPath id="clip0_14404_128">
<rect width="80" height="80" fill="white"/>
</clipPath>
</defs>
</svg>
