<svg width="80" height="80" viewBox="0 0 80 80" fill="none" xmlns="http://www.w3.org/2000/svg">
<path d="M64.7051 30.602L62.1016 27.999L74.7942 15.3064L62.1014 2.61471L64.7053 0.0117188L80 15.3064L64.7051 30.602Z" fill="#00A31E"/>
<path d="M18.474 61.3763H0V57.6902H18.474C21.1923 57.6902 23.6569 56.2166 24.9464 53.8207L43.6742 19.2455C45.609 15.6751 49.3406 13.4634 53.3946 13.4634H77.397V17.1494H53.3946C50.6764 17.1494 48.2118 18.6234 46.9223 21.0191L28.1945 55.5943C26.2597 59.1649 22.5279 61.3763 18.474 61.3763ZM64.7051 74.8288L62.1016 72.2258L74.7942 59.5333L62.1014 46.8415L64.7051 44.2385L79.9998 59.5333L64.7051 74.8288Z" fill="#00A31E"/>
<path d="M77.397 61.3763H53.3946C49.3409 61.3763 45.609 59.1649 43.6742 55.5943L24.9464 21.0191C23.6569 18.6462 21.1693 17.1494 18.474 17.1494H0V13.4634H18.474C22.5277 13.4634 26.2597 15.6749 28.1945 19.2457L46.9223 53.8207C48.2118 56.1934 50.6994 57.6902 53.3946 57.6902H77.397V61.3763Z" fill="#00A31E"/>
</svg>
