<svg width="80" height="80" viewBox="0 0 80 80" fill="none" xmlns="http://www.w3.org/2000/svg">
<path d="M0 29.3994H78.5202V32.8131H0V29.3994Z" fill="#00A31E"/>
<path d="M52.062 68.6596H26.4576C14.4881 68.6596 5.12088 52.9129 5.12088 32.8135V31.1069H8.53458V32.8135C8.53458 50.6939 16.5791 65.2459 26.4576 65.2459H52.062C61.9411 65.2459 69.985 50.6939 69.985 32.8135V31.1069H73.3994V32.8135C73.3994 52.913 64.0322 68.6596 52.062 68.6596Z" fill="#00A31E"/>
<path d="M8.91896 31.4694C7.38062 24.0031 10.5087 16.3481 16.836 12.0962C23.1627 7.84423 31.4322 7.83911 37.7645 12.0843C44.0963 16.3287 47.233 23.9801 45.7041 31.4482L42.3541 30.7649C43.5937 24.6589 41.0227 18.4084 35.8442 14.9422C30.6665 11.476 23.9077 11.4804 18.7344 14.9541C13.5617 18.4278 10.9987 24.6821 12.2477 30.7868L8.91896 31.4694Z" fill="#00A31E"/>
<path d="M18.4995 12.9487L17.923 11.6897C17.3653 10.4709 17.0744 9.14691 17.0698 7.80651C17.0684 6.5681 17.315 5.34195 17.7949 4.20029L19.4807 0.146484L22.6381 1.46927L20.953 5.52372C20.6459 6.24574 20.4862 7.02188 20.4835 7.80651C20.4848 8.65295 20.6666 9.48939 21.0167 10.26L21.5931 11.519L18.4995 12.9487ZM63.4133 32.3652L61.1304 29.8264L67.8302 23.7454C68.6703 22.9343 69.2791 21.9142 69.5942 20.7898C69.9093 19.6654 69.9192 18.4774 69.623 17.348C69.3264 16.2187 68.7344 15.1887 67.9078 14.3641C67.0812 13.5395 66.0498 12.9499 64.9198 12.656C63.7898 12.3622 62.6019 12.3748 61.4783 12.6925C60.3548 13.0103 59.3362 13.6217 58.5274 14.4638L45.6183 28.3754L43.1217 26.0494L56.0308 12.1378C56.9467 11.1612 58.0497 10.3788 59.2741 9.83715C60.4985 9.29545 61.8194 9.00551 63.1581 8.98458C64.4968 8.96365 65.8261 9.21215 67.0668 9.7153C68.3076 10.2185 69.4345 10.966 70.3805 11.9134C71.3265 12.8609 72.0723 13.9889 72.5736 15.2304C73.0749 16.4719 73.3214 17.8015 73.2984 19.1402C73.2755 20.4789 72.9836 21.7993 72.44 23.0229C71.8965 24.2465 71.1124 25.3483 70.1345 26.2628L63.4133 32.3652Z" fill="#00A31E"/>
<path d="M64.5034 3.1395L67.7734 2.15869L70.894 12.5611L67.624 13.5421L64.5034 3.1395Z" fill="#00A31E"/>
<path d="M69.0098 14.7388L69.4262 11.3501L79.9999 12.6484L79.5841 16.0371L69.0098 14.7388Z" fill="#00A31E"/>
<path d="M68.0596 11.8518L76.6293 3.28223L79.0434 5.6964L70.4733 14.2659L68.0596 11.8518ZM54.7506 15.4025C53.8771 14.019 52.6848 12.8649 51.2736 12.0368C49.8623 11.2087 48.2733 10.7308 46.6394 10.6431C45.0055 10.5553 43.3744 10.8603 41.8826 11.5325C40.3909 12.2047 39.0818 13.2245 38.0652 14.5065L35.398 12.3943C36.7534 10.6834 38.4992 9.32235 40.489 8.42517C42.4789 7.528 44.6548 7.12088 46.8344 7.23794C49.0139 7.35472 51.1337 7.99236 53.016 9.0974C54.8983 10.2024 56.4883 11.7427 57.6525 13.5889L54.7506 15.4025ZM62.6457 21.0508L65.0599 18.6367L70.2276 23.8044L67.8134 26.2186L62.6457 21.0508ZM49.5321 21.5884L51.9456 19.1748L56.8677 24.0963L54.4536 26.5099L49.5321 21.5884Z" fill="#00A31E"/>
</svg>
