<svg width="81" height="80" viewBox="0 0 81 80" fill="none" xmlns="http://www.w3.org/2000/svg">
<g clip-path="url(#clip0_14406_1586)">
<path d="M57.7778 20.3656C57.1333 10.8771 49.6664 3.7215 40.3992 3.7215C37.3897 3.71597 34.4286 4.47841 31.796 5.93667C29.1634 7.39492 26.9464 9.50077 25.3548 12.055L24.666 13.1435L23.4211 12.8323C22.8694 12.6895 22.3022 12.615 21.7323 12.6103C17.6659 12.6103 13.977 16.1213 13.977 19.9659H10.421C10.421 14.1435 15.71 9.05491 21.7323 9.05491C22.164 9.05424 22.5943 9.08425 23.0215 9.14341C24.9857 6.36293 27.5899 4.09574 30.6144 2.53317C33.6389 0.970609 36.9949 0.158523 40.3992 0.165449C51.5551 0.165449 60.5552 8.74374 61.3332 20.1214L57.7778 20.3656ZM34.8216 55.5218C32.8216 50.7885 30.0879 46.2333 27.2435 41.5886L30.2663 39.722C33.1771 44.4773 35.9773 49.1662 38.088 54.1219L34.8216 55.5218Z" fill="#00A31E"/>
<path d="M50.6664 74.8332H31.7774L31.4213 73.522C29.0216 64.6332 24.5768 55.1884 17.8436 44.655L20.8436 42.7443C27.4662 53.0777 31.9329 62.4334 34.4883 71.3H47.9553C50.333 63.2334 54.3109 55.6995 58.2218 48.633L61.3332 50.366C57.3331 57.6111 53.2217 65.3663 51.0219 73.5447L50.6664 74.8332Z" fill="#00A31E"/>
<path d="M45.9997 59.0108L42.6884 57.7223C44.6663 52.5889 47.333 47.6552 49.8884 43.0326L52.9998 44.7664C50.4886 49.2775 47.9105 54.0779 45.9997 59.0108Z" fill="#00A31E"/>
<path d="M63.5109 51.7222C57.1033 51.7359 51.2439 48.1082 48.3994 42.3659C46.3143 43.8235 43.8326 44.607 41.2886 44.611C38.8078 44.6182 36.3828 43.8744 34.3328 42.4773C31.3682 43.2148 28.2326 42.7602 25.5995 41.2111C21.7661 45.8635 15.4159 47.5938 9.75162 45.5295C4.08737 43.4651 0.34082 38.054 0.400654 32.0253C0.460655 25.9972 4.31471 20.6618 10.0186 18.7107C15.7225 16.7589 22.0371 18.6157 25.7772 23.3435L22.9993 25.5442C20.1151 21.893 15.1977 20.5329 10.8475 22.1828C6.49708 23.8318 3.7177 28.1105 3.97954 32.7558C4.24054 37.4004 7.48209 41.3406 11.99 42.4916C16.4979 43.6426 21.2318 41.7396 23.6882 37.7884L24.7773 36.0325L26.3549 37.3659C27.4137 38.2544 28.683 38.8559 30.0412 39.1128C31.3993 39.3696 32.8007 39.2732 34.1108 38.8327L35.0217 38.5215L35.7775 39.1217C39.4122 42.0028 44.6533 41.5957 47.7998 38.1882L49.8662 35.944L50.7999 38.8549C52.6006 44.5796 57.9992 48.4 63.9968 48.1948C69.9947 47.9892 75.1186 43.8088 76.5241 37.974C77.9291 32.1399 75.2708 26.0845 70.024 23.171C64.7779 20.2569 58.2322 21.2003 54.0219 25.477L51.4886 22.9881C53.053 21.3856 54.9231 20.1134 56.9882 19.2469C59.0534 18.3804 61.2714 17.9373 63.5109 17.9437C72.8385 17.9437 80.3998 25.505 80.3998 34.8326C80.3998 44.1603 72.8385 51.7222 63.5109 51.7222Z" fill="#00A31E"/>
</g>
<defs>
<clipPath id="clip0_14406_1586">
<rect width="80" height="80" fill="white" transform="translate(0.399994)"/>
</clipPath>
</defs>
</svg>
