<svg width="80" height="80" viewBox="0 0 80 80" fill="none" xmlns="http://www.w3.org/2000/svg">
<path d="M20.3125 75C20.271 74.8334 16.75 57.4164 15.4791 50.7086C15.137 48.8115 14.9766 46.8861 15 44.9586C14.9882 40.491 15.837 36.0629 17.5 31.9164L21.3544 22.3334C22.6619 19.0889 23.3336 15.6233 23.3332 12.1253C23.334 8.87533 22.7555 5.65124 21.6247 2.60435L21.1041 1.16638L24.2291 0.020752L24.7497 1.4581C26.0167 4.8719 26.6659 8.48396 26.6669 12.1253C26.6712 16.0508 25.9216 19.9407 24.4586 23.5834L20.6043 33.1665C19.0978 36.9151 18.3267 40.9185 18.3332 44.9584C18.3095 46.6761 18.4491 48.3922 18.75 50.0836C20.0208 56.7706 23.5419 74.1668 23.5835 74.3542L20.3125 75ZM41.6669 23.2915H38.3332V26.6247H41.6669V23.2915Z" fill="#00A31E"/>
<path d="M39.9999 34.9584C32.9583 34.9584 26.7499 34.4586 19.3749 32.0209L20.4168 28.8544C26.458 30.8331 31.9371 31.6247 39.9999 31.6247C48.0627 31.6247 53.5418 30.8539 59.583 28.8544L60.6249 32.0209C53.2499 34.4586 47.0415 34.9584 39.9999 34.9584ZM39.9999 51.0211L38.9165 50.1044C31.8334 44.1041 25.0415 41.2916 17.0623 38.9373L17.9998 35.7502C27.3748 38.5211 33.8751 41.7291 39.9791 46.6877C46.1041 41.7498 52.5835 38.5419 61.9585 35.7502L62.896 38.9373C54.8955 41.3123 48.1249 44.1041 41.0418 50.1044L39.9999 51.0211Z" fill="#00A31E"/>
<path d="M38.3332 48.8544H41.667V74.9664H38.3332V48.8544ZM11.8543 22.1459L9.50027 19.7711L15.9792 13.2916L9.47949 6.81282L11.8545 4.43719L20.6873 13.2916L11.8543 22.1459ZM68.1459 22.1459L59.3129 13.2916L68.1457 4.43719L70.5001 6.81282L64.0212 13.2916L70.5209 19.7713L68.1459 22.1459Z" fill="#00A31E"/>
<path d="M61.6669 11.6247H80V14.9584H61.6669V11.6247ZM59.6875 75L56.4166 74.3334C56.4581 74.1669 59.9792 56.7498 61.25 50.0622C61.551 48.3711 61.6906 46.6553 61.6669 44.9378C61.6734 40.8978 60.9023 36.8942 59.3958 33.1456L55.5414 23.5627C52.6942 16.4749 52.5829 8.58187 55.2289 1.41656L55.75 0L58.875 1.14562L58.3537 2.56219C55.9916 8.95146 56.0881 15.9906 58.6247 22.3127L62.4791 31.8958C64.1514 36.0474 65.0073 40.4826 65 44.9584C65.0235 46.886 64.863 48.8115 64.5209 50.7086C63.25 57.4164 59.7291 74.8334 59.6875 75ZM0 11.6247H18.3331V14.9584H0V11.6247Z" fill="#00A31E"/>
</svg>
