<svg width="80" height="80" viewBox="0 0 80 80" fill="none" xmlns="http://www.w3.org/2000/svg">
<g clip-path="url(#clip0_14401_1236)">
<path d="M32.415 66.1618L42.0889 49.6072L45.0917 51.3619L35.418 67.9165L32.415 66.1618Z" fill="#00A31E"/>
<path d="M42.1011 51.267L45.104 49.5117L54.7808 66.072L51.7779 67.8274L42.1011 51.267Z" fill="#00A31E"/>
<path d="M43.587 80.0002C27.2826 80.0002 14.022 66.7389 14.022 50.4346V48.6959H73.1519V50.4346C73.1519 66.7389 59.8913 80.0002 43.587 80.0002ZM17.5649 52.1739C18.4528 65.8995 29.8435 76.5776 43.5977 76.5776C57.3519 76.5776 68.7429 65.8995 69.6305 52.1739H17.5649Z" fill="#00A31E"/>
<path d="M43.5869 71.3041C31.9782 71.3041 22.5217 61.9348 22.5217 50.4345H25.9999C25.9999 60.0215 33.8915 67.826 43.5869 67.826C53.2823 67.826 61.1739 60.0216 61.1739 50.4345H64.6521C64.6521 61.9348 55.1956 71.3041 43.5871 71.3041H43.5869ZM59.2391 10.4348H3.58716V0H59.2391V10.4348ZM7.0652 6.95673H55.761V3.47804H7.0652V6.95673Z" fill="#00A31E"/>
<path d="M62.717 20.8695H0.108398V6.95673H62.717V20.8695ZM3.58709 17.3915H59.239V10.4348H3.58709V17.3915Z" fill="#00A31E"/>
<path d="M25.1738 73.0434H3.58716V17.3915H59.2391V50.4345H55.761V20.8695H7.0652V69.5654H25.1738V73.0434Z" fill="#00A31E"/>
<path d="M33.1521 50.4346H29.6741V29.565H57.4997V33.0437H33.1521V50.4346Z" fill="#00A31E"/>
</g>
<defs>
<clipPath id="clip0_14401_1236">
<rect width="80" height="80" fill="white"/>
</clipPath>
</defs>
</svg>
